# xmcd
#
# Track frame offsets:
#	150
#	33166
#	105683
#	159924
#	232006
#	285438
#	332418
#
# Disc length: 4677 seconds
# Revision: 0
# Processed by: cddbd v1.5.2PL0 Copyright (c) Steve Scherf et al.
# Submitted via: dBpowerAMP V12.0
#
DISCID=4e124307
DTITLE=Corey Dennison - Live In Chicago
DYEAR=2013
DGENRE=Blues
TTITLE0=Walk in My Shadow
TTITLE1=A Fool's Goodbye 
TTITLE2=All the Love I Miss
TTITLE3=Don't Say You're Sorry
TTITLE4=A Real Good Buddy
TTITLE5=Ask Me How I Know
TTITLE6=Swingin' with AC
EXTD=
EXTT0=
EXTT1=
EXTT2=
EXTT3=
EXTT4=
EXTT5=
EXTT6=
PLAYORDER=
